<svg width="188" height="30" viewBox="0 0 188 30" fill="none" xmlns="http://www.w3.org/2000/svg">
<path d="M8.84 29.6C6.54667 29.6 4.65333 29.0133 3.16 27.84C1.68 26.6667 0.626667 25.08 0 23.08L5.36 21.8C5.48 22.5333 5.86667 23.1733 6.52 23.72C7.17333 24.2533 7.86667 24.52 8.6 24.52C9.10667 24.52 9.64667 24.38 10.22 24.1C10.8067 23.82 11.2267 23.3733 11.48 22.76C11.64 22.3733 11.7333 21.9 11.76 21.34C11.7867 20.78 11.8 20.1333 11.8 19.4V0.199999H17.32V19.4C17.32 20.32 17.3133 21.12 17.3 21.8C17.3 22.48 17.2333 23.12 17.1 23.72C16.98 24.3067 16.7333 24.92 16.36 25.56C15.5467 26.9733 14.4867 28 13.18 28.64C11.8733 29.28 10.4267 29.6 8.84 29.6ZM34.6278 29.6C32.4545 29.6 30.5478 29.1133 28.9078 28.14C27.2678 27.1667 25.9878 25.8267 25.0678 24.12C24.1611 22.4 23.7078 20.4267 23.7078 18.2C23.7078 15.9467 24.1745 13.9667 25.1078 12.26C26.0411 10.54 27.3278 9.2 28.9678 8.24C30.6078 7.28 32.4945 6.8 34.6278 6.8C36.8011 6.8 38.7078 7.28667 40.3478 8.26C42.0011 9.23333 43.2878 10.58 44.2078 12.3C45.1278 14.0067 45.5878 15.9733 45.5878 18.2C45.5878 20.44 45.1211 22.42 44.1878 24.14C43.2678 25.8467 41.9811 27.1867 40.3278 28.16C38.6878 29.12 36.7878 29.6 34.6278 29.6ZM34.6278 24.52C36.3745 24.52 37.6745 23.9333 38.5278 22.76C39.3945 21.5733 39.8278 20.0533 39.8278 18.2C39.8278 16.28 39.3878 14.7467 38.5078 13.6C37.6411 12.4533 36.3478 11.88 34.6278 11.88C33.4411 11.88 32.4678 12.1467 31.7078 12.68C30.9478 13.2133 30.3811 13.9533 30.0078 14.9C29.6478 15.8467 29.4678 16.9467 29.4678 18.2C29.4678 20.1333 29.9011 21.6733 30.7678 22.82C31.6478 23.9533 32.9345 24.52 34.6278 24.52ZM62.1859 29.6C60.0393 29.6 58.2459 29.1 56.8059 28.1C55.3659 27.1 54.2793 25.74 53.5459 24.02C52.8259 22.3 52.4659 20.36 52.4659 18.2C52.4659 16.04 52.8259 14.1 53.5459 12.38C54.2659 10.66 55.3259 9.3 56.7259 8.3C58.1259 7.3 59.8526 6.8 61.9059 6.8C63.9726 6.8 65.7726 7.29333 67.3059 8.28C68.8393 9.26667 70.0259 10.62 70.8659 12.34C71.7193 14.0467 72.1459 16 72.1459 18.2C72.1459 20.36 71.7259 22.3 70.8859 24.02C70.0593 25.74 68.8993 27.1 67.4059 28.1C65.9126 29.1 64.1726 29.6 62.1859 29.6ZM51.5459 29V0.199999H57.0259V14.2H56.3459V29H51.5459ZM61.3059 24.76C62.4793 24.76 63.4393 24.4667 64.1859 23.88C64.9326 23.2933 65.4859 22.5067 65.8459 21.52C66.2059 20.52 66.3859 19.4133 66.3859 18.2C66.3859 17 66.1993 15.9067 65.8259 14.92C65.4526 13.92 64.8726 13.1267 64.0859 12.54C63.3126 11.94 62.3193 11.64 61.1059 11.64C59.9726 11.64 59.0526 11.9133 58.3459 12.46C57.6526 13.0067 57.1459 13.7733 56.8259 14.76C56.5059 15.7467 56.3459 16.8933 56.3459 18.2C56.3459 19.5067 56.5059 20.6533 56.8259 21.64C57.1459 22.6267 57.6659 23.3933 58.3859 23.94C59.1193 24.4867 60.0926 24.76 61.3059 24.76ZM82.4441 29V5.28H73.3641V0.199999H96.9641V5.28H87.8841V29H82.4441ZM99.7859 29V7.4H104.586V12.68L104.066 12C104.346 11.2533 104.719 10.5733 105.186 9.96C105.653 9.34667 106.226 8.84 106.906 8.44C107.426 8.12 107.993 7.87333 108.606 7.7C109.219 7.51333 109.853 7.4 110.506 7.36C111.159 7.30667 111.813 7.32 112.466 7.4V12.48C111.866 12.2933 111.166 12.2333 110.366 12.3C109.579 12.3533 108.866 12.5333 108.226 12.84C107.586 13.1333 107.046 13.5267 106.606 14.02C106.166 14.5 105.833 15.0733 105.606 15.74C105.379 16.3933 105.266 17.1333 105.266 17.96V29H99.7859ZM123.441 29.6C121.894 29.6 120.581 29.3067 119.501 28.72C118.434 28.12 117.621 27.3267 117.061 26.34C116.514 25.34 116.241 24.24 116.241 23.04C116.241 22.04 116.394 21.1267 116.701 20.3C117.007 19.4733 117.501 18.7467 118.181 18.12C118.874 17.48 119.801 16.9467 120.961 16.52C121.761 16.2267 122.714 15.9667 123.821 15.74C124.927 15.5133 126.181 15.3 127.581 15.1C128.981 14.8867 130.521 14.6533 132.201 14.4L130.241 15.48C130.241 14.2 129.934 13.26 129.321 12.66C128.707 12.06 127.681 11.76 126.241 11.76C125.441 11.76 124.607 11.9533 123.741 12.34C122.874 12.7267 122.267 13.4133 121.921 14.4L117.001 12.84C117.547 11.0533 118.574 9.6 120.081 8.48C121.587 7.36 123.641 6.8 126.241 6.8C128.147 6.8 129.841 7.09333 131.321 7.68C132.801 8.26666 133.921 9.28 134.681 10.72C135.107 11.52 135.361 12.32 135.441 13.12C135.521 13.92 135.561 14.8133 135.561 15.8V29H130.801V24.56L131.481 25.48C130.427 26.9333 129.287 27.9867 128.061 28.64C126.847 29.28 125.307 29.6 123.441 29.6ZM124.601 25.32C125.601 25.32 126.441 25.1467 127.121 24.8C127.814 24.44 128.361 24.0333 128.761 23.58C129.174 23.1267 129.454 22.7467 129.601 22.44C129.881 21.8533 130.041 21.1733 130.081 20.4C130.134 19.6133 130.161 18.96 130.161 18.44L131.761 18.84C130.147 19.1067 128.841 19.3333 127.841 19.52C126.841 19.6933 126.034 19.8533 125.421 20C124.807 20.1467 124.267 20.3067 123.801 20.48C123.267 20.6933 122.834 20.9267 122.501 21.18C122.181 21.42 121.941 21.6867 121.781 21.98C121.634 22.2733 121.561 22.6 121.561 22.96C121.561 23.4533 121.681 23.88 121.921 24.24C122.174 24.5867 122.527 24.8533 122.981 25.04C123.434 25.2267 123.974 25.32 124.601 25.32ZM151.881 29.6C149.641 29.6 147.721 29.1 146.121 28.1C144.521 27.1 143.294 25.74 142.441 24.02C141.588 22.3 141.161 20.36 141.161 18.2C141.161 16.0133 141.601 14.06 142.481 12.34C143.374 10.62 144.628 9.26667 146.241 8.28C147.854 7.29333 149.761 6.8 151.961 6.8C154.508 6.8 156.641 7.44667 158.361 8.74C160.094 10.02 161.201 11.7733 161.681 14L156.241 15.44C155.921 14.32 155.361 13.4467 154.561 12.82C153.774 12.1933 152.881 11.88 151.881 11.88C150.734 11.88 149.794 12.16 149.061 12.72C148.328 13.2667 147.788 14.02 147.441 14.98C147.094 15.9267 146.921 17 146.921 18.2C146.921 20.08 147.334 21.6067 148.161 22.78C149.001 23.94 150.241 24.52 151.881 24.52C153.108 24.52 154.041 24.24 154.681 23.68C155.321 23.12 155.801 22.32 156.121 21.28L161.681 22.44C161.068 24.7333 159.908 26.5 158.201 27.74C156.494 28.98 154.388 29.6 151.881 29.6ZM167.241 29L167.281 0.199999H172.801V17.8L180.121 7.4H186.841L179.041 18.2L187.361 29H180.281L172.801 18.6V29H167.241Z" fill="#FAC43A"/>
</svg>
